Coordinates
version=1
nRows=13
nColumns=38
inDegrees=no

Units are S.I. units (second, meters, Newtons, ...)
If the header above contains a line with 'inDegrees', this indicates whether rotational values are in degrees (yes) or radians (no).

endheader
time	pelvis_tilt	pelvis_list	pelvis_rotation	pelvis_tx	pelvis_ty	pelvis_tz	hip_flexion_r	hip_adduction_r	hip_rotation_r	knee_angle_r	ankle_angle_r	subtalar_angle_r	mtp_angle_r	hip_flexion_l	hip_adduction_l	hip_rotation_l	knee_angle_l	ankle_angle_l	subtalar_angle_l	mtp_angle_l	lumbar_extension	lumbar_bending	lumbar_rotation	arm_flex_r	arm_add_r	arm_rot_r	elbow_flex_r	pro_sup_r	wrist_flex_r	wrist_dev_r	arm_flex_l	arm_add_l	arm_rot_l	elbow_flex_l	pro_sup_l	wrist_flex_l	wrist_dev_l
0	0.101762	1.50418	-1.64726	0.948402	1.026	1.03849	0.302916	0.0335523	-0.0488381	0.123399	-0.172377	0	0	-0.305842	0.0549841	-0.289846	0.336518	-0.0983371	0	0	-0.0941543	0.0458231	-0.0115177	-0.170688	-0.133697	-0.364494	0.315794	0.510082	0	0	0.50576	-0.59274	1.5708	0.531179	0.507372	0	0
0.01	0.0934873	1.50815	-1.63533	0.948141	1.01553	1.03732	0.301001	0.0368949	-0.0360164	0.127791	-0.175236	0	0	-0.307495	0.0513241	-0.285243	0.345937	-0.0981353	0	0	-0.0928783	0.0490241	-0.0197731	-0.169527	-0.134646	-0.358787	0.319285	0.505134	0	0	0.504114	-0.596	1.5708	0.532574	0.510131	0	0
0.02	0.0666466	1.50943	-1.60438	0.947852	1.00413	1.03638	0.298419	0.0417103	-0.0347789	0.146501	-0.173107	0	0	-0.313337	0.0459241	-0.283543	0.354249	-0.09961	0	0	-0.0902928	0.0522449	-0.0250634	-0.171535	-0.135176	-0.35366	0.320179	0.499766	0	0	0.501112	-0.596194	1.5708	0.531048	0.514265	0	0
0.03	0.0387522	1.51035	-1.57211	0.947527	0.992265	1.03552	0.296495	0.0465911	-0.0380307	0.173447	-0.167698	0	0	-0.319446	0.0400796	-0.282382	0.363269	-0.102358	0	0	-0.0870855	0.0557337	-0.0301984	-0.175181	-0.135842	-0.348548	0.321565	0.494762	0	0	0.49748	-0.595415	1.5708	0.530323	0.509703	0	0
0.04	0.0126255	1.51136	-1.54131	0.947176	0.980071	1.03469	0.294289	0.0515632	-0.0427345	0.202403	-0.161851	0	0	-0.324886	0.033978	-0.281065	0.373904	-0.105823	0	0	-0.0827867	0.0592001	-0.0355083	-0.179885	-0.136561	-0.343966	0.323091	0.489618	0	0	0.49228	-0.594053	1.5708	0.529614	0.502154	0	0
0.05	-0.0166209	1.51185	-1.5068	0.94683	0.967714	1.03409	0.2902	0.0565785	-0.0474103	0.223611	-0.15933	0	0	-0.329542	0.0268851	-0.279567	0.387365	-0.109365	0	0	-0.0746984	0.0642872	-0.0355925	-0.188826	-0.137159	-0.344802	0.323994	0.485002	0	0	0.485127	-0.580734	1.5708	0.51224	0.497883	0	0
0.06	-0.0741445	1.51243	-1.44439	0.946629	0.955309	1.03379	0.28594	0.0622018	-0.0508526	0.231152	-0.158505	0	0	-0.332163	0.018222	-0.277827	0.404131	-0.113994	0	0	-0.0713205	0.071728	-0.0410965	-0.193612	-0.13892	-0.34458	0.326725	0.481313	0	0	0.475365	-0.574144	1.5708	0.502755	0.495025	0	0
0.07	-0.146726	1.5113	-1.36752	0.9465	0.942953	1.03392	0.279922	0.0679442	-0.0527762	0.228419	-0.161617	0	0	-0.334173	0.00860446	-0.275479	0.424423	-0.119812	0	0	-0.0700153	0.0807041	-0.0475554	-0.196481	-0.141711	-0.342869	0.328524	0.479025	0	0	0.464263	-0.567968	1.5708	0.494463	0.490928	0	0
0.08	-0.2274	1.50872	-1.28394	0.946323	0.930645	1.03448	0.271215	0.0746271	-0.0504961	0.224051	-0.171415	0	0	-0.334778	-0.00169929	-0.273061	0.448949	-0.127061	0	0	-0.070453	0.0909951	-0.0531126	-0.198314	-0.145306	-0.340231	0.329698	0.477569	0	0	0.452067	-0.561096	1.5708	0.486159	0.484963	0	0
0.09	-0.319478	1.50669	-1.19157	0.945929	0.918322	1.03529	0.264084	0.0822444	-0.0442866	0.228685	-0.187792	0	0	-0.331375	-0.0120949	-0.271327	0.478199	-0.136192	0	0	-0.0702867	0.102501	-0.0568327	-0.19986	-0.149571	-0.337213	0.330794	0.47552	0	0	0.437648	-0.553232	1.56667	0.477182	0.477043	0	0
0.1	-0.39616	1.50116	-1.11703	0.945323	0.906297	1.03641	0.255762	0.0902419	-0.0364449	0.242028	-0.1987	0	0	-0.328145	-0.0225929	-0.270128	0.512475	-0.145873	0	0	-0.0672834	0.11084	-0.0486291	-0.204881	-0.151452	-0.337819	0.325758	0.470214	0	0	0.428603	-0.538174	1.5708	0.461504	0.469622	0	0
0.11	-0.512251	1.50005	-1.00592	0.944629	0.894164	1.03744	0.255496	0.0986528	-0.0236733	0.25991	-0.210713	0	0	-0.314764	-0.0329745	-0.269249	0.5534	-0.161982	0	0	-0.0779454	0.122816	-0.0693884	-0.189676	-0.159957	-0.314234	0.325294	0.464264	0	0	0.400398	-0.564372	1.53027	0.499741	0.470122	0	0
0.12	-0.587537	1.49712	-0.93558	0.943693	0.882177	1.03859	0.252671	0.105672	-0.0100688	0.278423	-0.212627	0	0	-0.301385	-0.041597	-0.263587	0.596511	-0.175656	0	0	-0.0773364	0.131795	-0.0655016	-0.191587	-0.163529	-0.309518	0.324078	0.458595	0	0	0.383695	-0.55972	1.51494	0.49964	0.470974	0	0
